<svg width="343" height="52" viewBox="0 0 343 52" fill="none" xmlns="http://www.w3.org/2000/svg">
<path d="M14.64 2.12002V16.02H12.36V6.50002L8.12 16.02H6.54L2.28 6.50002V16.02H5.96046e-08V2.12002H2.46L7.34 13.02L12.2 2.12002H14.64ZM22.4167 16.2C21.3767 16.2 20.4367 15.9667 19.5967 15.5C18.7567 15.02 18.0967 14.3534 17.6167 13.5C17.1367 12.6334 16.8967 11.6334 16.8967 10.5C16.8967 9.38002 17.1434 8.38669 17.6367 7.52002C18.1301 6.65335 18.8034 5.98669 19.6567 5.52002C20.5101 5.05335 21.4634 4.82002 22.5167 4.82002C23.5701 4.82002 24.5234 5.05335 25.3767 5.52002C26.2301 5.98669 26.9034 6.65335 27.3967 7.52002C27.8901 8.38669 28.1367 9.38002 28.1367 10.5C28.1367 11.62 27.8834 12.6134 27.3767 13.48C26.8701 14.3467 26.1767 15.02 25.2967 15.5C24.4301 15.9667 23.4701 16.2 22.4167 16.2ZM22.4167 14.22C23.0034 14.22 23.5501 14.08 24.0567 13.8C24.5767 13.52 24.9967 13.1 25.3167 12.54C25.6367 11.98 25.7967 11.3 25.7967 10.5C25.7967 9.70002 25.6434 9.02669 25.3367 8.48002C25.0301 7.92002 24.6234 7.50002 24.1167 7.22002C23.6101 6.94002 23.0634 6.80002 22.4767 6.80002C21.8901 6.80002 21.3434 6.94002 20.8367 7.22002C20.3434 7.50002 19.9501 7.92002 19.6567 8.48002C19.3634 9.02669 19.2167 9.70002 19.2167 10.5C19.2167 11.6867 19.5167 12.6067 20.1167 13.26C20.7301 13.9 21.4967 14.22 22.4167 14.22ZM32.6706 6.60002C33.004 6.04002 33.444 5.60669 33.9906 5.30002C34.5506 4.98002 35.2106 4.82002 35.9706 4.82002V7.18002H35.3906C34.4973 7.18002 33.8173 7.40669 33.3506 7.86002C32.8973 8.31335 32.6706 9.10002 32.6706 10.22V16.02H30.3906V5.00002H32.6706V6.60002ZM48.1664 10.24C48.1664 10.6534 48.1397 11.0267 48.0864 11.36H39.6664C39.7331 12.24 40.0597 12.9467 40.6464 13.48C41.2331 14.0134 41.9531 14.28 42.8064 14.28C44.0331 14.28 44.8997 13.7667 45.4064 12.74H47.8664C47.5331 13.7534 46.9264 14.5867 46.0464 15.24C45.1797 15.88 44.0997 16.2 42.8064 16.2C41.7531 16.2 40.8064 15.9667 39.9664 15.5C39.1397 15.02 38.4864 14.3534 38.0064 13.5C37.5397 12.6334 37.3064 11.6334 37.3064 10.5C37.3064 9.36669 37.5331 8.37335 37.9864 7.52002C38.4531 6.65335 39.0997 5.98669 39.9264 5.52002C40.7664 5.05335 41.7264 4.82002 42.8064 4.82002C43.8464 4.82002 44.7731 5.04669 45.5864 5.50002C46.3997 5.95335 47.0331 6.59335 47.4864 7.42002C47.9397 8.23335 48.1664 9.17335 48.1664 10.24ZM45.7864 9.52002C45.7731 8.68002 45.4731 8.00669 44.8864 7.50002C44.2997 6.99335 43.5731 6.74002 42.7064 6.74002C41.9197 6.74002 41.2464 6.99335 40.6864 7.50002C40.1264 7.99335 39.7931 8.66669 39.6864 9.52002H45.7864ZM58.2655 6.86002V12.96C58.2655 13.3734 58.3588 13.6734 58.5455 13.86C58.7455 14.0334 59.0788 14.12 59.5455 14.12H60.9455V16.02H59.1455C58.1188 16.02 57.3321 15.78 56.7855 15.3C56.2388 14.82 55.9655 14.04 55.9655 12.96V6.86002H54.6655V5.00002H55.9655V2.26002H58.2655V5.00002H60.9455V6.86002H58.2655ZM68.7469 4.82002C69.5869 4.82002 70.3335 5.00002 70.9869 5.36002C71.6535 5.72002 72.1735 6.25335 72.5469 6.96002C72.9335 7.66669 73.1269 8.52002 73.1269 9.52002V16.02H70.8669V9.86002C70.8669 8.87335 70.6202 8.12002 70.1269 7.60002C69.6335 7.06669 68.9602 6.80002 68.1069 6.80002C67.2535 6.80002 66.5735 7.06669 66.0669 7.60002C65.5735 8.12002 65.3269 8.87335 65.3269 9.86002V16.02H63.0469V1.22002H65.3269V6.28002C65.7135 5.81335 66.2002 5.45335 66.7869 5.20002C67.3869 4.94669 68.0402 4.82002 68.7469 4.82002ZM75.2752 10.46C75.2752 9.35335 75.5018 8.37335 75.9552 7.52002C76.4218 6.66669 77.0485 6.00669 77.8352 5.54002C78.6352 5.06002 79.5152 4.82002 80.4752 4.82002C81.3418 4.82002 82.0952 4.99335 82.7352 5.34002C83.3885 5.67335 83.9085 6.09335 84.2952 6.60002V5.00002H86.5952V16.02H84.2952V14.38C83.9085 14.9 83.3818 15.3334 82.7152 15.68C82.0485 16.0267 81.2885 16.2 80.4352 16.2C79.4885 16.2 78.6218 15.96 77.8352 15.48C77.0485 14.9867 76.4218 14.3067 75.9552 13.44C75.5018 12.56 75.2752 11.5667 75.2752 10.46ZM84.2952 10.5C84.2952 9.74002 84.1352 9.08002 83.8152 8.52002C83.5085 7.96002 83.1018 7.53335 82.5952 7.24002C82.0885 6.94669 81.5418 6.80002 80.9552 6.80002C80.3685 6.80002 79.8218 6.94669 79.3152 7.24002C78.8085 7.52002 78.3952 7.94002 78.0752 8.50002C77.7685 9.04669 77.6152 9.70002 77.6152 10.46C77.6152 11.22 77.7685 11.8867 78.0752 12.46C78.3952 13.0334 78.8085 13.4734 79.3152 13.78C79.8352 14.0734 80.3818 14.22 80.9552 14.22C81.5418 14.22 82.0885 14.0734 82.5952 13.78C83.1018 13.4867 83.5085 13.06 83.8152 12.5C84.1352 11.9267 84.2952 11.26 84.2952 10.5ZM95.1498 4.82002C96.0165 4.82002 96.7898 5.00002 97.4698 5.36002C98.1632 5.72002 98.7032 6.25335 99.0898 6.96002C99.4765 7.66669 99.6698 8.52002 99.6698 9.52002V16.02H97.4098V9.86002C97.4098 8.87335 97.1632 8.12002 96.6698 7.60002C96.1765 7.06669 95.5032 6.80002 94.6498 6.80002C93.7965 6.80002 93.1165 7.06669 92.6098 7.60002C92.1165 8.12002 91.8698 8.87335 91.8698 9.86002V16.02H89.5898V5.00002H91.8698V6.26002C92.2432 5.80669 92.7165 5.45335 93.2898 5.20002C93.8765 4.94669 94.4965 4.82002 95.1498 4.82002ZM110.873 1.98002V10.38C110.873 11.22 111.08 11.8667 111.493 12.32C111.907 12.7734 112.513 13 113.313 13C114.113 13 114.727 12.7734 115.153 12.32C115.58 11.8667 115.793 11.22 115.793 10.38V1.98002H119.213V10.36C119.213 11.6134 118.947 12.6734 118.413 13.54C117.88 14.4067 117.16 15.06 116.253 15.5C115.36 15.94 114.36 16.16 113.253 16.16C112.147 16.16 111.153 15.9467 110.273 15.52C109.407 15.08 108.72 14.4267 108.213 13.56C107.707 12.68 107.453 11.6134 107.453 10.36V1.98002H110.873ZM126.695 16.16C125.668 16.16 124.748 15.9934 123.935 15.66C123.122 15.3267 122.468 14.8334 121.975 14.18C121.495 13.5267 121.242 12.74 121.215 11.82H124.855C124.908 12.34 125.088 12.74 125.395 13.02C125.702 13.2867 126.102 13.42 126.595 13.42C127.102 13.42 127.502 13.3067 127.795 13.08C128.088 12.84 128.235 12.5134 128.235 12.1C128.235 11.7534 128.115 11.4667 127.875 11.24C127.648 11.0134 127.362 10.8267 127.015 10.68C126.682 10.5334 126.202 10.3667 125.575 10.18C124.668 9.90002 123.928 9.62002 123.355 9.34002C122.782 9.06002 122.288 8.64669 121.875 8.10002C121.462 7.55335 121.255 6.84002 121.255 5.96002C121.255 4.65335 121.728 3.63335 122.675 2.90002C123.622 2.15335 124.855 1.78002 126.375 1.78002C127.922 1.78002 129.168 2.15335 130.115 2.90002C131.062 3.63335 131.568 4.66002 131.635 5.98002H127.935C127.908 5.52669 127.742 5.17335 127.435 4.92002C127.128 4.65335 126.735 4.52002 126.255 4.52002C125.842 4.52002 125.508 4.63335 125.255 4.86002C125.002 5.07335 124.875 5.38669 124.875 5.80002C124.875 6.25335 125.088 6.60669 125.515 6.86002C125.942 7.11335 126.608 7.38669 127.515 7.68002C128.422 7.98669 129.155 8.28002 129.715 8.56002C130.288 8.84002 130.782 9.24669 131.195 9.78002C131.608 10.3134 131.815 11 131.815 11.84C131.815 12.64 131.608 13.3667 131.195 14.02C130.795 14.6734 130.208 15.1934 129.435 15.58C128.662 15.9667 127.748 16.16 126.695 16.16ZM139.18 1.98002C140.66 1.98002 141.953 2.27335 143.06 2.86002C144.166 3.44669 145.02 4.27335 145.62 5.34002C146.233 6.39335 146.54 7.61335 146.54 9.00002C146.54 10.3734 146.233 11.5934 145.62 12.66C145.02 13.7267 144.16 14.5534 143.04 15.14C141.933 15.7267 140.646 16.02 139.18 16.02H133.92V1.98002H139.18ZM138.96 13.06C140.253 13.06 141.26 12.7067 141.98 12C142.7 11.2934 143.06 10.2934 143.06 9.00002C143.06 7.70669 142.7 6.70002 141.98 5.98002C141.26 5.26002 140.253 4.90002 138.96 4.90002H137.34V13.06H138.96ZM152.229 13.28C152.683 12.92 152.889 12.7534 152.849 12.78C154.156 11.7 155.183 10.8134 155.929 10.12C156.689 9.42669 157.329 8.70002 157.849 7.94002C158.369 7.18002 158.629 6.44002 158.629 5.72002C158.629 5.17335 158.503 4.74669 158.249 4.44002C157.996 4.13335 157.616 3.98002 157.109 3.98002C156.603 3.98002 156.203 4.17335 155.909 4.56002C155.629 4.93335 155.489 5.46669 155.489 6.16002H152.189C152.216 5.02669 152.456 4.08002 152.909 3.32002C153.376 2.56002 153.983 2.00002 154.729 1.64002C155.489 1.28002 156.329 1.10002 157.249 1.10002C158.836 1.10002 160.029 1.50669 160.829 2.32002C161.643 3.13335 162.049 4.19335 162.049 5.50002C162.049 6.92669 161.563 8.25335 160.589 9.48002C159.616 10.6934 158.376 11.88 156.869 13.04H162.269V15.82H152.229V13.28ZM167.795 12.86L165.575 18.6H163.395L164.555 12.86H167.795ZM169.517 8.52002C169.517 6.22669 169.957 4.42002 170.837 3.10002C171.731 1.78002 173.164 1.12002 175.137 1.12002C177.111 1.12002 178.537 1.78002 179.417 3.10002C180.311 4.42002 180.757 6.22669 180.757 8.52002C180.757 10.84 180.311 12.66 179.417 13.98C178.537 15.3 177.111 15.96 175.137 15.96C173.164 15.96 171.731 15.3 170.837 13.98C169.957 12.66 169.517 10.84 169.517 8.52002ZM177.397 8.52002C177.397 7.17335 177.251 6.14002 176.957 5.42002C176.664 4.68669 176.057 4.32002 175.137 4.32002C174.217 4.32002 173.611 4.68669 173.317 5.42002C173.024 6.14002 172.877 7.17335 172.877 8.52002C172.877 9.42669 172.931 10.18 173.037 10.78C173.144 11.3667 173.357 11.8467 173.677 12.22C174.011 12.58 174.497 12.76 175.137 12.76C175.777 12.76 176.257 12.58 176.577 12.22C176.911 11.8467 177.131 11.3667 177.237 10.78C177.344 10.18 177.397 9.42669 177.397 8.52002ZM182.564 8.52002C182.564 6.22669 183.004 4.42002 183.884 3.10002C184.777 1.78002 186.211 1.12002 188.184 1.12002C190.157 1.12002 191.584 1.78002 192.464 3.10002C193.357 4.42002 193.804 6.22669 193.804 8.52002C193.804 10.84 193.357 12.66 192.464 13.98C191.584 15.3 190.157 15.96 188.184 15.96C186.211 15.96 184.777 15.3 183.884 13.98C183.004 12.66 182.564 10.84 182.564 8.52002ZM190.444 8.52002C190.444 7.17335 190.297 6.14002 190.004 5.42002C189.711 4.68669 189.104 4.32002 188.184 4.32002C187.264 4.32002 186.657 4.68669 186.364 5.42002C186.071 6.14002 185.924 7.17335 185.924 8.52002C185.924 9.42669 185.977 10.18 186.084 10.78C186.191 11.3667 186.404 11.8467 186.724 12.22C187.057 12.58 187.544 12.76 188.184 12.76C188.824 12.76 189.304 12.58 189.624 12.22C189.957 11.8467 190.177 11.3667 190.284 10.78C190.391 10.18 190.444 9.42669 190.444 8.52002ZM195.611 8.52002C195.611 6.22669 196.051 4.42002 196.931 3.10002C197.824 1.78002 199.258 1.12002 201.231 1.12002C203.204 1.12002 204.631 1.78002 205.511 3.10002C206.404 4.42002 206.851 6.22669 206.851 8.52002C206.851 10.84 206.404 12.66 205.511 13.98C204.631 15.3 203.204 15.96 201.231 15.96C199.258 15.96 197.824 15.3 196.931 13.98C196.051 12.66 195.611 10.84 195.611 8.52002ZM203.491 8.52002C203.491 7.17335 203.344 6.14002 203.051 5.42002C202.758 4.68669 202.151 4.32002 201.231 4.32002C200.311 4.32002 199.704 4.68669 199.411 5.42002C199.118 6.14002 198.971 7.17335 198.971 8.52002C198.971 9.42669 199.024 10.18 199.131 10.78C199.238 11.3667 199.451 11.8467 199.771 12.22C200.104 12.58 200.591 12.76 201.231 12.76C201.871 12.76 202.351 12.58 202.671 12.22C203.004 11.8467 203.224 11.3667 203.331 10.78C203.438 10.18 203.491 9.42669 203.491 8.52002ZM214.956 3.70002C214.356 3.70002 213.863 3.52669 213.476 3.18002C213.103 2.82002 212.916 2.38002 212.916 1.86002C212.916 1.32669 213.103 0.886686 213.476 0.540019C213.863 0.180018 214.356 1.83582e-05 214.956 1.83582e-05C215.543 1.83582e-05 216.023 0.180018 216.396 0.540019C216.783 0.886686 216.976 1.32669 216.976 1.86002C216.976 2.38002 216.783 2.82002 216.396 3.18002C216.023 3.52669 215.543 3.70002 214.956 3.70002ZM216.656 4.86002V16.02H213.236V4.86002H216.656ZM225.935 4.74002C227.241 4.74002 228.281 5.16669 229.055 6.02002C229.841 6.86002 230.235 8.02002 230.235 9.50002V16.02H226.835V9.96002C226.835 9.21335 226.641 8.63335 226.255 8.22002C225.868 7.80669 225.348 7.60002 224.695 7.60002C224.041 7.60002 223.521 7.80669 223.135 8.22002C222.748 8.63335 222.555 9.21335 222.555 9.96002V16.02H219.135V4.86002H222.555V6.34002C222.901 5.84669 223.368 5.46002 223.955 5.18002C224.541 4.88669 225.201 4.74002 225.935 4.74002ZM238.569 3.70002C237.969 3.70002 237.476 3.52669 237.089 3.18002C236.716 2.82002 236.529 2.38002 236.529 1.86002C236.529 1.32669 236.716 0.886686 237.089 0.540019C237.476 0.180018 237.969 1.83582e-05 238.569 1.83582e-05C239.156 1.83582e-05 239.636 0.180018 240.009 0.540019C240.396 0.886686 240.589 1.32669 240.589 1.86002C240.589 2.38002 240.396 2.82002 240.009 3.18002C239.636 3.52669 239.156 3.70002 238.569 3.70002ZM240.269 4.86002V16.02H236.849V4.86002H240.269ZM249.548 4.74002C250.854 4.74002 251.894 5.16669 252.668 6.02002C253.454 6.86002 253.848 8.02002 253.848 9.50002V16.02H250.448V9.96002C250.448 9.21335 250.254 8.63335 249.868 8.22002C249.481 7.80669 248.961 7.60002 248.308 7.60002C247.654 7.60002 247.134 7.80669 246.748 8.22002C246.361 8.63335 246.168 9.21335 246.168 9.96002V16.02H242.748V4.86002H246.168V6.34002C246.514 5.84669 246.981 5.46002 247.568 5.18002C248.154 4.88669 248.814 4.74002 249.548 4.74002ZM255.544 10.44C255.544 9.28002 255.778 8.26669 256.244 7.40002C256.724 6.53335 257.384 5.86669 258.224 5.40002C259.078 4.93335 260.051 4.70002 261.144 4.70002C262.544 4.70002 263.711 5.06669 264.644 5.80002C265.591 6.53335 266.211 7.56669 266.504 8.90002H262.864C262.558 8.04669 261.964 7.62002 261.084 7.62002C260.458 7.62002 259.958 7.86669 259.584 8.36002C259.211 8.84002 259.024 9.53335 259.024 10.44C259.024 11.3467 259.211 12.0467 259.584 12.54C259.958 13.02 260.458 13.26 261.084 13.26C261.964 13.26 262.558 12.8334 262.864 11.98H266.504C266.211 13.2867 265.591 14.3134 264.644 15.06C263.698 15.8067 262.531 16.18 261.144 16.18C260.051 16.18 259.078 15.9467 258.224 15.48C257.384 15.0134 256.724 14.3467 256.244 13.48C255.778 12.6134 255.544 11.6 255.544 10.44ZM278.854 10.26C278.854 10.58 278.834 10.9134 278.794 11.26H271.054C271.107 11.9534 271.327 12.4867 271.714 12.86C272.114 13.22 272.6 13.4 273.174 13.4C274.027 13.4 274.62 13.04 274.954 12.32H278.594C278.407 13.0534 278.067 13.7134 277.574 14.3C277.094 14.8867 276.487 15.3467 275.754 15.68C275.02 16.0134 274.2 16.18 273.294 16.18C272.2 16.18 271.227 15.9467 270.374 15.48C269.52 15.0134 268.854 14.3467 268.374 13.48C267.894 12.6134 267.654 11.6 267.654 10.44C267.654 9.28002 267.887 8.26669 268.354 7.40002C268.834 6.53335 269.5 5.86669 270.354 5.40002C271.207 4.93335 272.187 4.70002 273.294 4.70002C274.374 4.70002 275.334 4.92669 276.174 5.38002C277.014 5.83335 277.667 6.48002 278.134 7.32002C278.614 8.16002 278.854 9.14002 278.854 10.26ZM275.354 9.36002C275.354 8.77335 275.154 8.30669 274.754 7.96002C274.354 7.61335 273.854 7.44002 273.254 7.44002C272.68 7.44002 272.194 7.60669 271.794 7.94002C271.407 8.27335 271.167 8.74669 271.074 9.36002H275.354ZM287.458 4.74002C288.765 4.74002 289.805 5.16669 290.578 6.02002C291.365 6.86002 291.758 8.02002 291.758 9.50002V16.02H288.358V9.96002C288.358 9.21335 288.165 8.63335 287.778 8.22002C287.391 7.80669 286.871 7.60002 286.218 7.60002C285.565 7.60002 285.045 7.80669 284.658 8.22002C284.271 8.63335 284.078 9.21335 284.078 9.96002V16.02H280.658V4.86002H284.078V6.34002C284.425 5.84669 284.891 5.46002 285.478 5.18002C286.065 4.88669 286.725 4.74002 287.458 4.74002ZM300.355 13.12V16.02H298.615C297.375 16.02 296.408 15.72 295.715 15.12C295.021 14.5067 294.675 13.5134 294.675 12.14V7.70002H293.315V4.86002H294.675V2.14002H298.095V4.86002H300.335V7.70002H298.095V12.18C298.095 12.5134 298.175 12.7534 298.335 12.9C298.495 13.0467 298.761 13.12 299.135 13.12H300.355ZM303.98 3.70002C303.38 3.70002 302.886 3.52669 302.5 3.18002C302.126 2.82002 301.94 2.38002 301.94 1.86002C301.94 1.32669 302.126 0.886686 302.5 0.540019C302.886 0.180018 303.38 1.83582e-05 303.98 1.83582e-05C304.566 1.83582e-05 305.046 0.180018 305.42 0.540019C305.806 0.886686 306 1.32669 306 1.86002C306 2.38002 305.806 2.82002 305.42 3.18002C305.046 3.52669 304.566 3.70002 303.98 3.70002ZM305.68 4.86002V16.02H302.26V4.86002H305.68ZM313.178 12.82L315.598 4.86002H319.238L315.278 16.02H311.058L307.098 4.86002H310.758L313.178 12.82ZM331.197 10.26C331.197 10.58 331.178 10.9134 331.138 11.26H323.398C323.451 11.9534 323.671 12.4867 324.058 12.86C324.458 13.22 324.944 13.4 325.518 13.4C326.371 13.4 326.964 13.04 327.298 12.32H330.938C330.751 13.0534 330.411 13.7134 329.918 14.3C329.438 14.8867 328.831 15.3467 328.098 15.68C327.364 16.0134 326.544 16.18 325.638 16.18C324.544 16.18 323.571 15.9467 322.718 15.48C321.864 15.0134 321.198 14.3467 320.718 13.48C320.238 12.6134 319.998 11.6 319.998 10.44C319.998 9.28002 320.231 8.26669 320.698 7.40002C321.178 6.53335 321.844 5.86669 322.698 5.40002C323.551 4.93335 324.531 4.70002 325.638 4.70002C326.718 4.70002 327.678 4.92669 328.518 5.38002C329.358 5.83335 330.011 6.48002 330.478 7.32002C330.958 8.16002 331.197 9.14002 331.197 10.26ZM327.698 9.36002C327.698 8.77335 327.498 8.30669 327.098 7.96002C326.698 7.61335 326.198 7.44002 325.598 7.44002C325.024 7.44002 324.538 7.60669 324.138 7.94002C323.751 8.27335 323.511 8.74669 323.418 9.36002H327.698ZM337.542 16.18C336.568 16.18 335.702 16.0134 334.942 15.68C334.182 15.3467 333.582 14.8934 333.142 14.32C332.702 13.7334 332.455 13.08 332.402 12.36H335.782C335.822 12.7467 336.002 13.06 336.322 13.3C336.642 13.54 337.035 13.66 337.502 13.66C337.928 13.66 338.255 13.58 338.482 13.42C338.722 13.2467 338.842 13.0267 338.842 12.76C338.842 12.44 338.675 12.2067 338.342 12.06C338.008 11.9 337.468 11.7267 336.722 11.54C335.922 11.3534 335.255 11.16 334.722 10.96C334.188 10.7467 333.728 10.42 333.342 9.98002C332.955 9.52669 332.762 8.92002 332.762 8.16002C332.762 7.52002 332.935 6.94002 333.282 6.42002C333.642 5.88669 334.162 5.46669 334.842 5.16002C335.535 4.85335 336.355 4.70002 337.302 4.70002C338.702 4.70002 339.802 5.04669 340.602 5.74002C341.415 6.43335 341.882 7.35335 342.002 8.50002H338.842C338.788 8.11335 338.615 7.80669 338.322 7.58002C338.042 7.35335 337.668 7.24002 337.202 7.24002C336.802 7.24002 336.495 7.32002 336.282 7.48002C336.068 7.62669 335.962 7.83335 335.962 8.10002C335.962 8.42002 336.128 8.66002 336.462 8.82002C336.808 8.98002 337.342 9.14002 338.062 9.30002C338.888 9.51335 339.562 9.72669 340.082 9.94002C340.602 10.14 341.055 10.4734 341.442 10.94C341.842 11.3934 342.048 12.0067 342.062 12.78C342.062 13.4334 341.875 14.02 341.502 14.54C341.142 15.0467 340.615 15.4467 339.922 15.74C339.242 16.0334 338.448 16.18 337.542 16.18ZM61.115 40.46C61.115 39.3534 61.3417 38.3734 61.795 37.52C62.2617 36.6667 62.8883 36.0067 63.675 35.54C64.475 35.06 65.355 34.82 66.315 34.82C67.1817 34.82 67.935 34.9934 68.575 35.34C69.2283 35.6734 69.7483 36.0934 70.135 36.6V35H72.435V46.02H70.135V44.38C69.7483 44.9 69.2217 45.3334 68.555 45.68C67.8883 46.0267 67.1283 46.2 66.275 46.2C65.3283 46.2 64.4617 45.96 63.675 45.48C62.8883 44.9867 62.2617 44.3067 61.795 43.44C61.3417 42.56 61.115 41.5667 61.115 40.46ZM70.135 40.5C70.135 39.74 69.975 39.08 69.655 38.52C69.3483 37.96 68.9417 37.5334 68.435 37.24C67.9283 36.9467 67.3817 36.8 66.795 36.8C66.2083 36.8 65.6617 36.9467 65.155 37.24C64.6483 37.52 64.235 37.94 63.915 38.5C63.6083 39.0467 63.455 39.7 63.455 40.46C63.455 41.22 63.6083 41.8867 63.915 42.46C64.235 43.0334 64.6483 43.4734 65.155 43.78C65.675 44.0734 66.2217 44.22 66.795 44.22C67.3817 44.22 67.9283 44.0734 68.435 43.78C68.9417 43.4867 69.3483 43.06 69.655 42.5C69.975 41.9267 70.135 41.26 70.135 40.5ZM90.2297 35L86.8097 46.02H84.4097L82.1897 37.88L79.9697 46.02H77.5697L74.1297 35H76.4497L78.7497 43.86L81.0897 35H83.4697L85.7097 43.82L87.9897 35H90.2297ZM91.1736 40.46C91.1736 39.3534 91.4003 38.3734 91.8536 37.52C92.3203 36.6667 92.9469 36.0067 93.7336 35.54C94.5336 35.06 95.4136 34.82 96.3736 34.82C97.2403 34.82 97.9936 34.9934 98.6336 35.34C99.2869 35.6734 99.8069 36.0934 100.194 36.6V35H102.494V46.02H100.194V44.38C99.8069 44.9 99.2803 45.3334 98.6136 45.68C97.9469 46.0267 97.1869 46.2 96.3336 46.2C95.3869 46.2 94.5203 45.96 93.7336 45.48C92.9469 44.9867 92.3203 44.3067 91.8536 43.44C91.4003 42.56 91.1736 41.5667 91.1736 40.46ZM100.194 40.5C100.194 39.74 100.034 39.08 99.7136 38.52C99.4069 37.96 99.0003 37.5334 98.4936 37.24C97.9869 36.9467 97.4403 36.8 96.8536 36.8C96.2669 36.8 95.7203 36.9467 95.2136 37.24C94.7069 37.52 94.2936 37.94 93.9736 38.5C93.6669 39.0467 93.5136 39.7 93.5136 40.46C93.5136 41.22 93.6669 41.8867 93.9736 42.46C94.2936 43.0334 94.7069 43.4734 95.2136 43.78C95.7336 44.0734 96.2803 44.22 96.8536 44.22C97.4403 44.22 97.9869 44.0734 98.4936 43.78C99.0003 43.4867 99.4069 43.06 99.7136 42.5C100.034 41.9267 100.194 41.26 100.194 40.5ZM107.768 36.6C108.102 36.04 108.542 35.6067 109.088 35.3C109.648 34.98 110.308 34.82 111.068 34.82V37.18H110.488C109.595 37.18 108.915 37.4067 108.448 37.86C107.995 38.3134 107.768 39.1 107.768 40.22V46.02H105.488V35H107.768V36.6ZM112.404 40.46C112.404 39.3534 112.631 38.3734 113.084 37.52C113.551 36.6667 114.177 36.0067 114.964 35.54C115.764 35.06 116.651 34.82 117.624 34.82C118.344 34.82 119.051 34.98 119.744 35.3C120.451 35.6067 121.011 36.02 121.424 36.54V31.22H123.724V46.02H121.424V44.36C121.051 44.8934 120.531 45.3334 119.864 45.68C119.211 46.0267 118.457 46.2 117.604 46.2C116.644 46.2 115.764 45.96 114.964 45.48C114.177 44.9867 113.551 44.3067 113.084 43.44C112.631 42.56 112.404 41.5667 112.404 40.46ZM121.424 40.5C121.424 39.74 121.264 39.08 120.944 38.52C120.637 37.96 120.231 37.5334 119.724 37.24C119.217 36.9467 118.671 36.8 118.084 36.8C117.497 36.8 116.951 36.9467 116.444 37.24C115.937 37.52 115.524 37.94 115.204 38.5C114.897 39.0467 114.744 39.7 114.744 40.46C114.744 41.22 114.897 41.8867 115.204 42.46C115.524 43.0334 115.937 43.4734 116.444 43.78C116.964 44.0734 117.511 44.22 118.084 44.22C118.671 44.22 119.217 44.0734 119.724 43.78C120.231 43.4867 120.637 43.06 120.944 42.5C121.264 41.9267 121.424 41.26 121.424 40.5ZM136.819 40.24C136.819 40.6534 136.792 41.0267 136.739 41.36H128.319C128.385 42.24 128.712 42.9467 129.299 43.48C129.885 44.0134 130.605 44.28 131.459 44.28C132.685 44.28 133.552 43.7667 134.059 42.74H136.519C136.185 43.7534 135.579 44.5867 134.699 45.24C133.832 45.88 132.752 46.2 131.459 46.2C130.405 46.2 129.459 45.9667 128.619 45.5C127.792 45.02 127.139 44.3534 126.659 43.5C126.192 42.6334 125.959 41.6334 125.959 40.5C125.959 39.3667 126.185 38.3734 126.639 37.52C127.105 36.6534 127.752 35.9867 128.579 35.52C129.419 35.0534 130.379 34.82 131.459 34.82C132.499 34.82 133.425 35.0467 134.239 35.5C135.052 35.9534 135.685 36.5934 136.139 37.42C136.592 38.2334 136.819 39.1734 136.819 40.24ZM134.439 39.52C134.425 38.68 134.125 38.0067 133.539 37.5C132.952 36.9934 132.225 36.74 131.359 36.74C130.572 36.74 129.899 36.9934 129.339 37.5C128.779 37.9934 128.445 38.6667 128.339 39.52H134.439ZM138.303 40.46C138.303 39.3534 138.529 38.3734 138.983 37.52C139.449 36.6667 140.076 36.0067 140.863 35.54C141.663 35.06 142.549 34.82 143.523 34.82C144.243 34.82 144.949 34.98 145.643 35.3C146.349 35.6067 146.909 36.02 147.323 36.54V31.22H149.623V46.02H147.323V44.36C146.949 44.8934 146.429 45.3334 145.763 45.68C145.109 46.0267 144.356 46.2 143.503 46.2C142.543 46.2 141.663 45.96 140.863 45.48C140.076 44.9867 139.449 44.3067 138.983 43.44C138.529 42.56 138.303 41.5667 138.303 40.46ZM147.323 40.5C147.323 39.74 147.163 39.08 146.843 38.52C146.536 37.96 146.129 37.5334 145.623 37.24C145.116 36.9467 144.569 36.8 143.983 36.8C143.396 36.8 142.849 36.9467 142.343 37.24C141.836 37.52 141.423 37.94 141.103 38.5C140.796 39.0467 140.643 39.7 140.643 40.46C140.643 41.22 140.796 41.8867 141.103 42.46C141.423 43.0334 141.836 43.4734 142.343 43.78C142.863 44.0734 143.409 44.22 143.983 44.22C144.569 44.22 145.116 44.0734 145.623 43.78C146.129 43.4867 146.536 43.06 146.843 42.5C147.163 41.9267 147.323 41.26 147.323 40.5ZM157.053 40.46C157.053 39.3534 157.279 38.3734 157.733 37.52C158.199 36.6667 158.826 36.0067 159.613 35.54C160.413 35.06 161.299 34.82 162.273 34.82C162.993 34.82 163.699 34.98 164.393 35.3C165.099 35.6067 165.659 36.02 166.073 36.54V31.22H168.373V46.02H166.073V44.36C165.699 44.8934 165.179 45.3334 164.513 45.68C163.859 46.0267 163.106 46.2 162.253 46.2C161.293 46.2 160.413 45.96 159.613 45.48C158.826 44.9867 158.199 44.3067 157.733 43.44C157.279 42.56 157.053 41.5667 157.053 40.46ZM166.073 40.5C166.073 39.74 165.913 39.08 165.593 38.52C165.286 37.96 164.879 37.5334 164.373 37.24C163.866 36.9467 163.319 36.8 162.733 36.8C162.146 36.8 161.599 36.9467 161.093 37.24C160.586 37.52 160.173 37.94 159.853 38.5C159.546 39.0467 159.393 39.7 159.393 40.46C159.393 41.22 159.546 41.8867 159.853 42.46C160.173 43.0334 160.586 43.4734 161.093 43.78C161.613 44.0734 162.159 44.22 162.733 44.22C163.319 44.22 163.866 44.0734 164.373 43.78C164.879 43.4867 165.286 43.06 165.593 42.5C165.913 41.9267 166.073 41.26 166.073 40.5ZM181.347 35V46.02H179.067V44.72C178.707 45.1734 178.234 45.5334 177.647 45.8C177.074 46.0534 176.461 46.18 175.807 46.18C174.941 46.18 174.161 46 173.467 45.64C172.787 45.28 172.247 44.7467 171.847 44.04C171.461 43.3334 171.267 42.48 171.267 41.48V35H173.527V41.14C173.527 42.1267 173.774 42.8867 174.267 43.42C174.761 43.94 175.434 44.2 176.287 44.2C177.141 44.2 177.814 43.94 178.307 43.42C178.814 42.8867 179.067 42.1267 179.067 41.14V35H181.347ZM186.635 36.6C186.969 36.04 187.409 35.6067 187.955 35.3C188.515 34.98 189.175 34.82 189.935 34.82V37.18H189.355C188.462 37.18 187.782 37.4067 187.315 37.86C186.862 38.3134 186.635 39.1 186.635 40.22V46.02H184.355V35H186.635V36.6ZM193.191 33.54C192.778 33.54 192.431 33.4 192.151 33.12C191.871 32.84 191.731 32.4934 191.731 32.08C191.731 31.6667 191.871 31.32 192.151 31.04C192.431 30.76 192.778 30.62 193.191 30.62C193.591 30.62 193.931 30.76 194.211 31.04C194.491 31.32 194.631 31.6667 194.631 32.08C194.631 32.4934 194.491 32.84 194.211 33.12C193.931 33.4 193.591 33.54 193.191 33.54ZM194.311 35V46.02H192.031V35H194.311ZM202.865 34.82C203.731 34.82 204.505 35 205.185 35.36C205.878 35.72 206.418 36.2534 206.805 36.96C207.191 37.6667 207.385 38.52 207.385 39.52V46.02H205.125V39.86C205.125 38.8734 204.878 38.12 204.385 37.6C203.891 37.0667 203.218 36.8 202.365 36.8C201.511 36.8 200.831 37.0667 200.325 37.6C199.831 38.12 199.585 38.8734 199.585 39.86V46.02H197.305V35H199.585V36.26C199.958 35.8067 200.431 35.4534 201.005 35.2C201.591 34.9467 202.211 34.82 202.865 34.82ZM214.733 34.82C215.586 34.82 216.34 34.9934 216.993 35.34C217.66 35.6734 218.18 36.0934 218.553 36.6V35H220.853V46.2C220.853 47.2134 220.64 48.1134 220.213 48.9C219.786 49.7 219.166 50.3267 218.353 50.78C217.553 51.2334 216.593 51.46 215.473 51.46C213.98 51.46 212.74 51.1067 211.753 50.4C210.766 49.7067 210.206 48.76 210.073 47.56H212.333C212.506 48.1334 212.873 48.5934 213.433 48.94C214.006 49.3 214.686 49.48 215.473 49.48C216.393 49.48 217.133 49.2 217.693 48.64C218.266 48.08 218.553 47.2667 218.553 46.2V44.36C218.166 44.88 217.64 45.32 216.973 45.68C216.32 46.0267 215.573 46.2 214.733 46.2C213.773 46.2 212.893 45.96 212.093 45.48C211.306 44.9867 210.68 44.3067 210.213 43.44C209.76 42.56 209.533 41.5667 209.533 40.46C209.533 39.3534 209.76 38.3734 210.213 37.52C210.68 36.6667 211.306 36.0067 212.093 35.54C212.893 35.06 213.773 34.82 214.733 34.82ZM218.553 40.5C218.553 39.74 218.393 39.08 218.073 38.52C217.766 37.96 217.36 37.5334 216.853 37.24C216.346 36.9467 215.8 36.8 215.213 36.8C214.626 36.8 214.08 36.9467 213.573 37.24C213.066 37.52 212.653 37.94 212.333 38.5C212.026 39.0467 211.873 39.7 211.873 40.46C211.873 41.22 212.026 41.8867 212.333 42.46C212.653 43.0334 213.066 43.4734 213.573 43.78C214.093 44.0734 214.64 44.22 215.213 44.22C215.8 44.22 216.346 44.0734 216.853 43.78C217.36 43.4867 217.766 43.06 218.073 42.5C218.393 41.9267 218.553 41.26 218.553 40.5ZM230.003 42.92C231.283 41.8134 232.29 40.9067 233.023 40.2C233.77 39.48 234.39 38.7334 234.883 37.96C235.376 37.1867 235.623 36.4134 235.623 35.64C235.623 34.84 235.43 34.2134 235.043 33.76C234.67 33.3067 234.076 33.08 233.263 33.08C232.476 33.08 231.863 33.3334 231.423 33.84C230.996 34.3334 230.77 35 230.743 35.84H228.543C228.583 34.32 229.036 33.16 229.903 32.36C230.783 31.5467 231.896 31.14 233.243 31.14C234.696 31.14 235.83 31.54 236.643 32.34C237.47 33.14 237.883 34.2067 237.883 35.54C237.883 36.5 237.636 37.4267 237.143 38.32C236.663 39.2 236.083 39.9934 235.403 40.7C234.736 41.3934 233.883 42.2 232.843 43.12L231.943 43.92H238.283V45.82H228.563V44.16L230.003 42.92ZM240.286 38.54C240.286 36.2334 240.673 34.4334 241.446 33.14C242.233 31.8334 243.579 31.18 245.486 31.18C247.393 31.18 248.733 31.8334 249.506 33.14C250.293 34.4334 250.686 36.2334 250.686 38.54C250.686 40.8734 250.293 42.7 249.506 44.02C248.733 45.3267 247.393 45.98 245.486 45.98C243.579 45.98 242.233 45.3267 241.446 44.02C240.673 42.7 240.286 40.8734 240.286 38.54ZM248.446 38.54C248.446 37.46 248.373 36.5467 248.226 35.8C248.093 35.0534 247.813 34.4467 247.386 33.98C246.959 33.5 246.326 33.26 245.486 33.26C244.646 33.26 244.013 33.5 243.586 33.98C243.159 34.4467 242.873 35.0534 242.726 35.8C242.593 36.5467 242.526 37.46 242.526 38.54C242.526 39.66 242.593 40.6 242.726 41.36C242.859 42.12 243.139 42.7334 243.566 43.2C244.006 43.6667 244.646 43.9 245.486 43.9C246.326 43.9 246.959 43.6667 247.386 43.2C247.826 42.7334 248.113 42.12 248.246 41.36C248.379 40.6 248.446 39.66 248.446 38.54ZM254.358 42.92C255.638 41.8134 256.645 40.9067 257.378 40.2C258.125 39.48 258.745 38.7334 259.238 37.96C259.732 37.1867 259.978 36.4134 259.978 35.64C259.978 34.84 259.785 34.2134 259.398 33.76C259.025 33.3067 258.432 33.08 257.618 33.08C256.832 33.08 256.218 33.3334 255.778 33.84C255.352 34.3334 255.125 35 255.098 35.84H252.898C252.938 34.32 253.392 33.16 254.258 32.36C255.138 31.5467 256.252 31.14 257.598 31.14C259.052 31.14 260.185 31.54 260.998 32.34C261.825 33.14 262.238 34.2067 262.238 35.54C262.238 36.5 261.992 37.4267 261.498 38.32C261.018 39.2 260.438 39.9934 259.758 40.7C259.092 41.3934 258.238 42.2 257.198 43.12L256.298 43.92H262.638V45.82H252.918V44.16L254.358 42.92ZM274.041 33.4H267.341V37.38C267.621 37.0067 268.035 36.6934 268.581 36.44C269.141 36.1867 269.735 36.06 270.361 36.06C271.481 36.06 272.388 36.3 273.081 36.78C273.788 37.26 274.288 37.8667 274.581 38.6C274.888 39.3334 275.041 40.1067 275.041 40.92C275.041 41.9067 274.848 42.7867 274.461 43.56C274.088 44.32 273.521 44.92 272.761 45.36C272.015 45.8 271.095 46.02 270.001 46.02C268.548 46.02 267.381 45.66 266.501 44.94C265.621 44.22 265.095 43.2667 264.921 42.08H267.141C267.288 42.7067 267.615 43.2067 268.121 43.58C268.628 43.94 269.261 44.12 270.021 44.12C270.968 44.12 271.675 43.8334 272.141 43.26C272.621 42.6867 272.861 41.9267 272.861 40.98C272.861 40.02 272.621 39.2867 272.141 38.78C271.661 38.26 270.955 38 270.021 38C269.368 38 268.815 38.1667 268.361 38.5C267.921 38.82 267.601 39.26 267.401 39.82H265.241V31.4H274.041V33.4ZM278.635 46.16C278.222 46.16 277.875 46.02 277.595 45.74C277.315 45.46 277.175 45.1134 277.175 44.7C277.175 44.2867 277.315 43.94 277.595 43.66C277.875 43.38 278.222 43.24 278.635 43.24C279.035 43.24 279.375 43.38 279.655 43.66C279.935 43.94 280.075 44.2867 280.075 44.7C280.075 45.1134 279.935 45.46 279.655 45.74C279.375 46.02 279.035 46.16 278.635 46.16Z" fill="#393C40"/>
</svg>
